<svg width="16" height="16" viewBox="0 0 16 16" fill="none" xmlns="http://www.w3.org/2000/svg">
<mask id="mask0_48_31" style="mask-type:alpha" maskUnits="userSpaceOnUse" x="0" y="0" width="16" height="16">
<rect width="16" height="16" fill="#D9D9D9"/>
</mask>
<g mask="url(#mask0_48_31)">
<path d="M15.7494 6.74107L14.7678 6.15257C14.7586 6.09358 14.7494 6.04028 14.738 5.99265C14.7956 5.94503 14.8211 5.90168 14.8411 5.83487C15.4104 2.60816 12.1587 0.916566 7.95532 1.00317C3.75699 0.916464 0.501715 2.60803 1.07249 5.83487C1.18835 6.02961 1.06254 6.11205 1.07392 6.41838L0.217474 7.01469C-0.104487 7.22364 -0.0611282 7.75174 0.295657 7.90312C0.598441 8.04029 0.906191 8.17675 1.21465 8.3118V9.04102C1.01422 9.26633 0.72637 9.83918 0.985795 11.1875C1.059 11.4085 1.13008 11.3645 1.40086 11.5564C1.49468 13.7199 4.44853 14.2871 7.93252 14.3147C11.4152 14.2849 14.3335 13.7205 14.4607 11.5585C14.7351 11.3659 14.8047 11.4086 14.8794 11.1875C15.1395 9.83285 14.8488 9.2614 14.6477 9.03833V8.17122C15.0876 7.94308 15.4522 7.76467 15.7102 7.64171C15.8801 7.55997 15.991 7.39224 15.9995 7.20461C16.008 7.01626 15.9121 6.83845 15.7494 6.74107ZM2.18624 3.39701C3.79394 0.956322 12.1231 0.957778 13.7288 3.39772C14.4587 4.32808 14.3564 5.32457 14.3067 5.61387C13.9655 5.86547 13.6592 6.08795 12.871 6.40778C12.5255 6.55277 12.7331 7.06806 13.0821 6.93585C13.5796 6.73684 13.9499 6.53642 14.22 6.36797C14.3735 7.77241 11.669 7.89821 11.0671 7.51012C11.4104 7.44474 11.7416 7.36798 12.0586 7.27843C12.4168 7.1704 12.2661 6.63664 11.9051 6.73116C8.12542 7.82499 3.03135 6.9259 1.6085 5.61387C1.55804 5.32246 1.45701 4.32674 2.18624 3.39701ZM7.93333 8.24708C6.70587 8.24708 6.17565 7.96562 5.94752 7.72965C5.92833 7.70975 5.91198 7.68985 5.89706 7.67066C6.51327 7.74173 7.19842 7.78366 7.95674 7.78366C8.66038 7.78366 9.33061 7.74599 9.96747 7.67421C9.95255 7.69269 9.93833 7.71046 9.91985 7.72965C9.69171 7.96562 9.16148 8.24708 7.93404 8.24708H7.93333ZM1.64821 6.34151C2.18981 6.68764 3.19905 7.19227 4.81033 7.50428C4.20478 7.90301 1.46135 7.77295 1.64821 6.34151ZM13.6357 12.306C12.4601 14.2434 3.42077 14.2265 2.23682 12.3302C1.78266 11.6657 2.17712 12.0381 2.54883 12.1681C2.87079 12.2939 3.20769 12.2989 3.49412 12.1824C3.632 12.1262 3.82603 12.0779 3.96748 12.1625C4.57019 12.5249 5.70027 12.9557 6.14015 12.2783C6.65685 12.4873 7.09539 12.9087 7.80685 12.9066C8.01013 12.8704 7.85803 12.8718 8.05917 12.9066C8.77063 12.9109 9.21342 12.4801 9.728 12.2797C10.1509 12.962 11.2909 12.5271 11.8979 12.1632C12.0401 12.0779 12.2341 12.1269 12.3713 12.1831C12.6591 12.2996 12.9946 12.2947 13.3173 12.1681C13.6378 12.0679 14.0721 11.6656 13.6343 12.306L13.6357 12.306ZM14.2561 7.7338C12.9676 8.40758 11.1097 9.46516 9.28671 10.8149C8.9413 10.6984 6.93136 10.0118 4.46721 9.04519C4.11894 8.91512 3.91282 9.43112 4.25967 9.5747C6.82827 10.5825 8.90869 11.2876 9.13104 11.3629C9.28953 11.4205 9.46723 11.3928 9.60154 11.2897C11.2036 10.1006 12.8424 9.13761 14.0806 8.47094V9.05091C13.8873 9.2357 13.2306 9.77018 11.7849 10.1554C11.4218 10.2592 11.5724 10.7951 11.9306 10.7048C13.2434 10.3558 13.972 9.88248 14.3217 9.59532C14.402 9.80499 14.473 10.213 14.3444 10.9614C13.9869 11.1824 13.4844 11.493 13.1127 11.6387C12.9258 11.7119 12.7395 11.7176 12.5875 11.6558C12.2179 11.5058 11.8788 11.5122 11.6073 11.6757C11.0629 12.0026 10.35 12.203 10.2136 11.9806C9.90794 11.4873 9.4019 11.7802 9.06784 11.9735C8.71034 12.1931 8.24266 12.4077 7.8084 12.3381C7.0806 12.4163 6.19784 11.1831 5.65556 11.9806C5.51838 12.2024 4.80621 12.0026 4.26178 11.6757C3.99098 11.5129 3.65196 11.5065 3.28167 11.6558C3.12886 11.7176 2.94264 11.7112 2.75643 11.6387C2.36482 11.4859 1.76282 11.1128 1.52472 10.9614C1.39607 10.2158 1.46644 9.80785 1.54604 9.59675C2.01158 9.98836 3.29873 10.7673 5.74873 11.041C6.09913 11.0417 6.13041 10.515 5.78214 10.4745C3.1162 10.1568 2.03942 9.29255 1.7856 9.0509V8.55907C2.30516 8.78154 2.80124 8.98765 3.26323 9.17315C3.61292 9.30677 3.81833 8.79005 3.47504 8.64508C2.60295 8.2961 1.53763 7.84051 0.624243 7.42615L1.19355 7.02956C1.72803 8.50507 4.65425 8.48729 5.33783 7.85259C6.01802 9.15965 9.85184 9.1632 10.5327 7.85259C11.269 8.52566 14.4163 8.49582 14.7489 6.80141L15.3701 7.17384C15.09 7.30817 14.7091 7.49722 14.2577 7.73319L14.2561 7.7338Z" fill="#F4AE00"/>
<path d="M8.83605 4.95629C9.20991 4.94989 9.20991 4.3941 8.83605 4.3877C8.4622 4.39409 8.4622 4.94989 8.83605 4.95629Z" fill="#F4AE00"/>
<path d="M10.0655 6.18603C10.4394 6.17963 10.4394 5.62384 10.0655 5.61743C9.69169 5.62383 9.69169 6.17962 10.0655 6.18603Z" fill="#F4AE00"/>
<path d="M6.14209 5.94348C6.14849 6.31733 6.70428 6.31733 6.71069 5.94348C6.70429 5.56962 6.14849 5.56962 6.14209 5.94348Z" fill="#F4AE00"/>
<path d="M12.1819 4.87254C12.4434 4.60815 12.044 4.20871 11.7796 4.47027C11.518 4.73395 11.9175 5.1341 12.1819 4.87254Z" fill="#F4AE00"/>
<path d="M6.24426 4.45824C6.61811 4.45185 6.61811 3.89605 6.24426 3.88965C5.8704 3.89605 5.8704 4.45184 6.24426 4.45824Z" fill="#F4AE00"/>
<path d="M4.14855 3.60522C4.52241 3.59882 4.52241 3.04303 4.14855 3.03662C3.7747 3.04302 3.7747 3.59881 4.14855 3.60522Z" fill="#F4AE00"/>
<path d="M7.62707 2.98608C8.00092 2.97968 8.00092 2.42389 7.62707 2.41748C7.25322 2.42388 7.25322 2.97967 7.62707 2.98608Z" fill="#F4AE00"/>
<path d="M10.0895 2.98608C10.4633 2.97968 10.4633 2.42389 10.0895 2.41748C9.71562 2.42388 9.71562 2.97967 10.0895 2.98608Z" fill="#F4AE00"/>
<path d="M3.734 5.24071C4.10786 5.23432 4.10786 4.67852 3.734 4.67212C3.36015 4.67852 3.36015 5.23431 3.734 5.24071Z" fill="#F4AE00"/>
</g>
</svg>
