<svg width="25" height="25" viewBox="0 0 25 25" fill="none" xmlns="http://www.w3.org/2000/svg">
<mask id="mask0_23_7" style="mask-type:alpha" maskUnits="userSpaceOnUse" x="0" y="0" width="25" height="25">
<rect width="25" height="25" fill="#D9D9D9"/>
</mask>
<g mask="url(#mask0_23_7)">
<path d="M9.52949 17.5049C8.23385 17.5049 7.15941 18.5794 7.15941 19.875C7.15941 21.1706 8.23385 22.2451 9.52949 22.2451C10.8251 22.2451 11.8996 21.1706 11.8996 19.875C11.8996 18.5478 10.8251 17.5049 9.52949 17.5049ZM9.52949 20.981C8.92907 20.981 8.42346 20.4754 8.42346 19.875C8.42346 19.2746 8.92907 18.769 9.52949 18.769C10.1299 18.769 10.6355 19.2746 10.6355 19.875C10.6355 20.4754 10.1299 20.981 9.52949 20.981ZM17.4614 17.5049C16.1657 17.5049 15.0913 18.5794 15.0913 19.875C15.0913 21.1706 16.1657 22.2451 17.4614 22.2451C18.757 22.2451 19.8315 21.1706 19.8315 19.875C19.8315 18.5478 18.7886 17.5049 17.4614 17.5049ZM17.4614 20.981C16.861 20.981 16.3553 20.4754 16.3553 19.875C16.3553 19.2746 16.861 18.769 17.4614 18.769C18.0618 18.769 18.5674 19.2746 18.5674 19.875C18.5674 20.4754 18.0934 20.981 17.4614 20.981ZM20.5583 13.5548H8.13905C8.26545 14.0288 8.36025 14.3764 8.42346 14.5976C8.64466 15.514 9.15028 15.514 9.15028 15.514H19.1046C20.4319 15.514 21.0955 16.4937 21.2851 17.0625C21.3799 17.3785 21.2219 17.7577 20.8743 17.8525C20.8111 17.8841 20.7479 17.8841 20.6847 17.8841C20.4319 17.8841 20.1791 17.7261 20.0843 17.4733C20.0527 17.4101 19.7999 16.8097 19.1046 16.8097H9.18188C9.18188 16.8097 7.69663 16.9045 7.19101 14.9452C6.875 13.6812 4.88413 6.22331 4.34691 4.26405H1.88202C1.53441 4.26405 1.25 3.97963 1.25 3.63202C1.25 3.28441 1.53441 3 1.88202 3H4.82093C5.10534 3 5.35815 3.18961 5.42135 3.47402C5.42135 3.47402 6.875 8.97261 7.75983 12.3223H20.0843L22.2331 5.65449H7.38062C7.03301 5.65449 6.7486 5.37008 6.7486 5.02247C6.7486 4.67486 7.03301 4.39045 7.38062 4.39045H23.118C23.3076 4.39045 23.4972 4.48525 23.6236 4.64326C23.75 4.80126 23.7816 5.02247 23.7184 5.21208L21.1587 13.144C21.0639 13.3652 20.8111 13.5548 20.5583 13.5548Z" fill="#DEDEDE"/>
</g>
</svg>
