<svg width="25" height="25" viewBox="0 0 25 25" fill="none" xmlns="http://www.w3.org/2000/svg">
<mask id="mask0_35_8" style="mask-type:alpha" maskUnits="userSpaceOnUse" x="0" y="0" width="25" height="25">
<rect width="25" height="25" fill="#D9D9D9"/>
</mask>
<g mask="url(#mask0_35_8)">
<path fill-rule="evenodd" clip-rule="evenodd" d="M11.2558 4.00094C10.9794 4.00094 10.7554 4.22499 10.7554 4.5014V5.00187H14.2587V4.5014C14.2587 4.22499 14.0346 4.00094 13.7582 4.00094H11.2558ZM9.75444 4.5014V5.00187H5V6.00281H20.014V5.00187H15.2596V4.5014C15.2596 3.6722 14.5874 3 13.7582 3H11.2558C10.4266 3 9.75444 3.6722 9.75444 4.5014ZM6.70144 19.5792L6.07936 8.00468H7.08175L7.70095 19.5254C7.71521 19.791 7.93472 19.9991 8.20069 19.9991H16.8133C17.0793 19.9991 17.2988 19.791 17.3131 19.5254L17.9323 8.00468H18.9347L18.3126 19.5792C18.2698 20.3759 17.6112 21 16.8133 21H8.20069C7.4028 21 6.74428 20.3759 6.70144 19.5792ZM10.2554 17.5363L9.82103 8.00468H10.823L11.2553 17.4908L10.2554 17.5363ZM13.7587 17.4908L14.191 8.00468H15.193L14.7586 17.5363L13.7587 17.4908Z" fill="#DEDEDE"/>
</g>
</svg>
